<?xml version="1.0" standalone="no"?>
<!DOCTYPE svg PUBLIC "-//W3C//DTD SVG 20010904//EN"
 "http://www.w3.org/TR/2001/REC-SVG-20010904/DTD/svg10.dtd">
<svg version="1.0" xmlns="http://www.w3.org/2000/svg"
 width="336.000000pt" height="336.000000pt" viewBox="0 0 336.000000 336.000000"
 preserveAspectRatio="xMidYMid meet">
<metadata>
Created by potrace 1.11, written by Peter Selinger 2001-2013
</metadata>
<g transform="translate(0.000000,336.000000) scale(0.100000,-0.100000)"
fill="#000000" stroke="none">
<path d="M220 1680 l0 -1680 1460 0 1460 0 0 1680 0 1680 -1460 0 -1460 0 0
-1680z m1495 1296 c43 -19 56 -43 66 -134 10 -86 46 -173 107 -254 22 -29 132
-143 244 -253 208 -206 275 -288 342 -421 68 -137 104 -355 85 -520 -12 -111
-15 -121 -52 -224 -104 -289 -364 -511 -675 -575 -394 -81 -819 137 -993 508
-81 175 -103 411 -54 601 29 116 56 177 123 282 97 151 166 196 242 157 65
-33 70 -57 70 -333 0 -236 1 -247 24 -295 26 -57 83 -117 141 -148 58 -32 192
-31 253 1 103 55 164 152 164 264 1 105 -34 165 -189 329 -194 204 -232 263
-253 394 -18 107 11 234 89 390 112 222 168 271 266 231z"/>
</g>
</svg>
